<svg width="184" height="36" viewBox="0 0 184 36" fill="none" xmlns="http://www.w3.org/2000/svg">
<path d="M19.124 19C19.124 13.744 14.876 9.604 9.656 9.604C4.436 9.604 0.188 13.744 0.188 19C0.188 24.256 4.436 28.396 9.656 28.396C14.876 28.396 19.124 24.256 19.124 19ZM5.156 19C5.156 16.228 7.064 14.212 9.656 14.212C12.248 14.212 14.12 16.228 14.12 19C14.12 21.772 12.248 23.788 9.656 23.788C7.064 23.788 5.156 21.772 5.156 19ZM56.3131 3.916C56.3131 2.188 54.9091 0.783998 53.1451 0.783998C51.4531 0.783998 50.0131 2.188 50.0131 3.916C50.0131 5.644 51.4531 7.048 53.1451 7.048C54.9091 7.048 56.3131 5.644 56.3131 3.916ZM24.2371 28H29.1691V14.32H33.1291V10H29.1691V8.272C29.1691 6.076 30.1051 5.248 32.2291 5.248C33.0211 5.248 33.9571 5.32 34.2451 5.536V1.18C33.4531 0.927999 32.4811 0.783998 31.1131 0.783998C27.2971 0.783998 24.2371 2.908 24.2371 7.3V10H20.6011V14.32H24.2371V28ZM37.7731 28H42.7051V14.32H47.7811V10H42.7051V8.272C42.7051 6.076 43.6411 5.248 45.7291 5.248C46.5571 5.248 47.2051 5.32 47.7811 5.536V1.18C46.9531 0.927999 45.9811 0.783998 44.6491 0.783998C40.8331 0.783998 37.7731 2.908 37.7731 7.3V10H34.8931V14.32H37.7731V28ZM50.6971 28H55.6291V10H50.6971V28ZM77.2882 23.212L73.0042 20.908C72.2842 22.564 70.7362 23.788 68.7562 23.788C66.1642 23.788 64.1842 21.772 64.1842 19C64.1842 16.228 66.1642 14.212 68.7562 14.212C70.7362 14.212 72.2842 15.436 73.0042 17.092L77.2882 14.788C75.7402 11.692 72.5002 9.604 68.7562 9.604C63.4282 9.604 59.2162 13.564 59.2162 19C59.2162 24.436 63.4282 28.396 68.7562 28.396C72.5002 28.396 75.7402 26.308 77.2882 23.212ZM79.2904 19C79.2904 24.688 83.4664 28.396 88.8304 28.396C92.6104 28.396 95.5264 26.776 97.1824 24.364L93.5104 21.628C92.7184 22.852 91.0984 23.896 88.8664 23.896C86.4904 23.896 84.3664 22.564 84.0784 20.152H97.5424C97.6144 19.396 97.6144 18.892 97.6144 18.46C97.6144 12.628 93.4744 9.604 88.7584 9.604C83.2864 9.604 79.2904 13.672 79.2904 19ZM88.6144 13.672C90.4504 13.672 92.2504 14.68 92.6824 16.804H84.2584C84.7264 14.608 86.7784 13.672 88.6144 13.672Z" fill="#21C55E"/>
<path d="M118.751 26.596V10H113.819V12.016C112.919 10.648 110.939 9.604 108.635 9.604C103.955 9.604 100.139 13.636 100.139 18.712C100.139 23.752 103.955 27.784 108.635 27.784C110.939 27.784 112.919 26.74 113.819 25.408V26.632C113.819 29.512 111.947 31.564 109.031 31.564C107.051 31.564 104.999 30.844 103.415 29.332L100.715 33.004C102.767 34.948 106.007 35.884 109.103 35.884C114.611 35.884 118.751 33.112 118.751 26.596ZM105.107 18.712C105.107 15.94 107.195 14.104 109.679 14.104C112.163 14.104 114.215 15.94 114.215 18.712C114.215 21.448 112.163 23.32 109.679 23.32C107.195 23.32 105.107 21.448 105.107 18.712ZM122.392 19C122.392 24.688 126.568 28.396 131.932 28.396C135.712 28.396 138.628 26.776 140.284 24.364L136.612 21.628C135.82 22.852 134.2 23.896 131.968 23.896C129.592 23.896 127.468 22.564 127.18 20.152H140.644C140.716 19.396 140.716 18.892 140.716 18.46C140.716 12.628 136.576 9.604 131.86 9.604C126.388 9.604 122.392 13.672 122.392 19ZM131.716 13.672C133.552 13.672 135.352 14.68 135.784 16.804H127.36C127.828 14.608 129.88 13.672 131.716 13.672ZM143.204 19C143.204 24.688 147.38 28.396 152.744 28.396C156.524 28.396 159.44 26.776 161.096 24.364L157.424 21.628C156.632 22.852 155.012 23.896 152.78 23.896C150.404 23.896 148.28 22.564 147.992 20.152H161.456C161.528 19.396 161.528 18.892 161.528 18.46C161.528 12.628 157.388 9.604 152.672 9.604C147.2 9.604 143.204 13.672 143.204 19ZM152.528 13.672C154.364 13.672 156.164 14.68 156.596 16.804H148.172C148.64 14.608 150.692 13.672 152.528 13.672ZM165.169 28H170.101V19.72L177.445 28H183.529L174.745 18.1L181.873 10H175.933L170.101 16.624V0.999998H165.169V28Z" fill="black"/>
</svg>
